<svg width="170" height="21" viewBox="0 0 170 21" fill="none" xmlns="http://www.w3.org/2000/svg">
<rect x="165" y="11" width="5" height="5" fill="#DEB545"/>
<path d="M1.152 16V4.72H8.992V6.656H3.536V9.296H8.608V11.248H3.536V14.064H8.992V16H1.152ZM12.1701 16V4.72H14.6661V16H12.1701ZM18.3914 16V4.72H22.6954C24.0074 4.72 25.1167 4.944 26.0234 5.392C26.93 5.84 27.6127 6.48533 28.0714 7.328C28.5407 8.16 28.7754 9.168 28.7754 10.352C28.7754 11.5253 28.5407 12.5333 28.0714 13.376C27.6127 14.2187 26.93 14.8693 26.0234 15.328C25.1167 15.776 24.0074 16 22.6954 16H18.3914ZM20.8874 13.952H22.5514C23.81 13.952 24.7434 13.6587 25.3514 13.072C25.97 12.4747 26.2794 11.568 26.2794 10.352C26.2794 9.12533 25.97 8.21867 25.3514 7.632C24.7434 7.04533 23.81 6.752 22.5514 6.752H20.8874V13.952ZM32.1751 16V4.72H40.0151V6.656H34.5591V9.296H39.6311V11.248H34.5591V14.064H40.0151V16H32.1751ZM49.1489 16V4.72H56.9889V6.656H51.5329V9.296H56.6049V11.248H51.5329V14.064H56.9889V16H49.1489ZM60.167 16V4.72H62.663V13.904H67.751V16H60.167ZM70.7164 16V4.72H78.5564V6.656H73.1004V9.296H78.1724V11.248H73.1004V14.064H78.5564V16H70.7164ZM81.7345 16V4.72H84.2305V9.632H84.2625L88.8865 4.72H91.8465L86.1665 10.624L86.1825 9.6L92.1985 16H89.1425L84.2625 10.848H84.2305V16H81.7345ZM96.1419 16V6.752H92.5579V4.72H102.222V6.752H98.6379V16H96.1419ZM105.021 16V4.72H110.141C111.41 4.72 112.391 5.024 113.085 5.632C113.778 6.22933 114.125 7.06667 114.125 8.144C114.125 8.848 113.965 9.456 113.645 9.968C113.335 10.4693 112.887 10.8587 112.301 11.136C111.725 11.4027 111.031 11.536 110.221 11.536L110.413 11.184H111.069C111.527 11.184 111.933 11.3067 112.285 11.552C112.647 11.7973 112.946 12.1547 113.181 12.624L114.861 16H112.109L110.365 12.368C110.237 12.0587 110.034 11.856 109.757 11.76C109.49 11.6533 109.181 11.6 108.829 11.6H107.517V16H105.021ZM107.517 9.808H109.709C110.359 9.808 110.855 9.67467 111.197 9.408C111.538 9.14133 111.709 8.74667 111.709 8.224C111.709 7.70133 111.538 7.312 111.197 7.056C110.855 6.78933 110.359 6.656 109.709 6.656H107.517V9.808ZM117.375 10.352C117.375 9.17867 117.593 8.16 118.031 7.296C118.479 6.42133 119.119 5.744 119.951 5.264C120.783 4.784 121.769 4.544 122.911 4.544C124.052 4.544 125.039 4.784 125.871 5.264C126.703 5.744 127.343 6.42133 127.791 7.296C128.249 8.16 128.479 9.17333 128.479 10.336C128.479 11.52 128.249 12.5493 127.791 13.424C127.343 14.288 126.703 14.9653 125.871 15.456C125.039 15.936 124.052 16.176 122.911 16.176C121.769 16.176 120.783 15.936 119.951 15.456C119.129 14.9653 118.495 14.2827 118.047 13.408C117.599 12.5333 117.375 11.5147 117.375 10.352ZM119.983 10.352C119.983 11.5147 120.223 12.4267 120.703 13.088C121.193 13.7387 121.929 14.064 122.911 14.064C123.871 14.064 124.601 13.7387 125.103 13.088C125.604 12.4267 125.855 11.5147 125.855 10.352C125.855 9.17867 125.604 8.272 125.103 7.632C124.612 6.98133 123.881 6.656 122.911 6.656C121.929 6.656 121.193 6.98133 120.703 7.632C120.223 8.272 119.983 9.17867 119.983 10.352ZM136.497 16L141.681 4.72H143.745L148.993 16H146.465L145.105 12.864L146.081 13.552H139.377L140.369 12.864L139.009 16H136.497ZM142.705 7.344L140.641 12.24L140.209 11.632H145.249L144.881 12.24L142.769 7.344H142.705ZM155.345 16.176C154.438 16.176 153.59 16.064 152.801 15.84C152.012 15.616 151.34 15.3067 150.785 14.912L151.521 12.96C151.884 13.2053 152.268 13.4133 152.673 13.584C153.078 13.7547 153.505 13.888 153.953 13.984C154.401 14.0693 154.87 14.112 155.361 14.112C156.129 14.112 156.673 13.9947 156.993 13.76C157.324 13.5253 157.489 13.2267 157.489 12.864C157.489 12.5333 157.377 12.2827 157.153 12.112C156.94 11.9307 156.545 11.776 155.969 11.648L154.081 11.264C153.046 11.0507 152.273 10.688 151.761 10.176C151.249 9.664 150.993 8.98133 150.993 8.128C150.993 7.40267 151.185 6.77333 151.569 6.24C151.953 5.70667 152.492 5.29067 153.185 4.992C153.889 4.69333 154.71 4.544 155.649 4.544C156.449 4.544 157.196 4.656 157.889 4.88C158.582 5.104 159.153 5.424 159.601 5.84L158.865 7.664C158.428 7.312 157.937 7.05067 157.393 6.88C156.86 6.69867 156.262 6.608 155.601 6.608C154.908 6.608 154.374 6.73067 154.001 6.976C153.638 7.22133 153.457 7.55733 153.457 7.984C153.457 8.304 153.569 8.56533 153.793 8.768C154.017 8.96 154.412 9.11467 154.977 9.232L156.833 9.6C157.889 9.81333 158.673 10.1707 159.185 10.672C159.697 11.1733 159.953 11.84 159.953 12.672C159.953 13.376 159.761 13.9893 159.377 14.512C159.004 15.0347 158.47 15.4453 157.777 15.744C157.094 16.032 156.284 16.176 155.345 16.176Z" fill="white"/>
</svg>
