<svg width="38" height="38" viewBox="0 0 38 38" fill="none" xmlns="http://www.w3.org/2000/svg">
<path fill-rule="evenodd" clip-rule="evenodd" d="M19.0001 3.16797C12.8884 3.16797 7.91675 8.13964 7.91675 14.2513C7.91675 18.0196 9.80091 21.3288 12.6667 23.3396V26.918C12.6667 27.7888 13.3792 28.5013 14.2501 28.5013H23.7501C24.6209 28.5013 25.3334 27.7888 25.3334 26.918V23.3396C28.1992 21.3288 30.0834 18.0196 30.0834 14.2513C30.0834 8.13964 25.1117 3.16797 19.0001 3.16797ZM14.2501 33.2513C14.2501 34.1221 14.9626 34.8346 15.8334 34.8346H22.1667C23.0376 34.8346 23.7501 34.1221 23.7501 33.2513V31.668H14.2501V33.2513ZM22.1667 21.693L23.5126 20.743C25.6501 19.2546 26.9167 16.8321 26.9167 14.2513C26.9167 9.8813 23.3701 6.33464 19.0001 6.33464C14.6301 6.33464 11.0834 9.8813 11.0834 14.2513C11.0834 16.8321 12.3501 19.2546 14.4876 20.743L15.8334 21.693V25.3346H22.1667V21.693Z" fill="#DEB545"/>
</svg>
