<svg xmlns="http://www.w3.org/2000/svg" width="38" height="38" fill="none" xmlns:v="https://vecta.io/nano"><path fill-rule="evenodd" d="M19 9.499a9.51 9.51 0 0 0-9.5 9.5h2.834c.713 0 1.061.855.57 1.346l-4.418 4.418c-.317.317-.808.317-1.124 0l-4.417-4.417c-.507-.491-.158-1.346.554-1.346h2.834C6.333 12 12.002 6.332 19 6.332c1.647 0 3.23.317 4.671.903 1.061.427 1.346 1.789.538 2.597-.427.427-1.077.602-1.647.364-1.093-.459-2.312-.697-3.562-.697zm6.112 8.138l4.418-4.417a.78.78 0 0 1 1.108.016l4.418 4.417c.507.491.158 1.346-.554 1.346h-2.834c0 6.998-5.668 12.667-12.667 12.667-1.647 0-3.23-.317-4.671-.903-1.061-.427-1.346-1.789-.538-2.597.427-.427 1.077-.602 1.647-.364 1.093.459 2.312.697 3.563.697a9.51 9.51 0 0 0 9.5-9.5h-2.834c-.713 0-1.061-.855-.554-1.362z" fill="#deb545"/></svg>